{
  "title": "Finding Dory 2016 HDTS x264 AC3-VAiN",
  "uid": 15265662,
  "size": 1486996822,
  "categoryP": "video",
  "categoryS": "movies",
  "magnet": "?xt=urn:btih:8ac53a35deb6c6ce0a29243c20114f2b8d5f9962&amp;dn=Finding+Dory+2016+HDTS+x264+AC3-VAiN&amp;tr=udp%3A%2F%2Ftracker.leechers-paradise.org%3A6969&amp;tr=udp%3A%2F%2Fzer0day.ch%3A1337&amp;tr=udp%3A%2F%2Fopen.demonii.com%3A1337&amp;tr=udp%3A%2F%2Ftracker.coppersurfer.tk%3A6969&amp;tr=udp%3A%2F%2Fexodus.desync.com%3A6969",
  "seeders": 55,
  "leechers": 19,
  "uploader": "makintos13",
  "files": 9,
  "time": 1468212139,
  "description": "screens:\r\n \nhttps://imgmak.com/TwC\r\n \nhttps://imgmak.com/TwK\r\n \nhttps://imgmak.com/TwT\r\n \nhttps://imgmak.com/Twa\r\n \nhttps://imgmak.com/Twp\r\n \nhttps://imgmak.com/TwR\r\n\r\nFinding Dory 2016 HDTS x264 AC3-VAiN\r\n\r\n\r\nP R E S E N T S . . . . \r\n\r\nFinding.Dory.2016.HDTS.x264.AC3-VAiN\r\n\r\niMDB........: http://www.imdb.com/title/tt2277860/\r\n\r\n\r\n\r\nT E C H N i C A L . i N F O . . .\r\n\r\nBasic Information\r\nFormat                      : Matroska\r\nFormat version              : Version 4 / Version 2\r\nFile size                   : 1.37 GiB\r\nDuration                    : 1h 26mn\r\nOverall bit rate mode       : Variable\r\nOverall bit rate            : 2 255 Kbps\r\nEncoded date                : UTC 2016-07-10 21:25:07\r\nWriting application         : mkvmerge v8.3.0 ('Over the Horizon') 64bit\r\nWriting library             : libebml v1.3.1 + libmatroska v1.4.2\r\n\r\nVideo\r\nID                          : 1\r\nFormat                      : AVC\r\nFormat/Info                 : Advanced Video Codec\r\nFormat profile              :   \r\nFormat settings, CABAC      : Yes\r\nFormat settings, ReFrames   : 3 frames\r\nCodec ID                    : V_MPEG4/ISO/AVC\r\nDuration                    : 1h 26mn\r\nBit rate mode               : Variable\r\nBit rate                    : 1 997 Kbps\r\nMaximum bit rate            : 40.0 Mbps\r\nWidth                       : 720 pixels\r\nHeight                      : 384 pixels\r\nDisplay aspect ratio        : 1.85:1\r\nFrame rate mode             : Constant\r\nFrame rate                  : 29.970 (30000/1001) fps\r\nColor space                 : YUV\r\nChroma subsampling          : 4:2:0\r\nBit depth                   : 8 bits\r\nScan type                   : Progressive\r\nBits/(Pixel*Frame)          : 0.241\r\nStream size                 : 1.21 GiB (89%)\r\nWriting library             : x264 core 148 r2692 64f4e24\r\n\r\nLanguage                    : English\r\nDefault                     : Yes\r\nForced                      : No\r\nColor range                 : Full\r\nColor primaries             : BT.709\r\nTransfer characteristics    : BT.709\r\nMatrix coefficients         : BT.709\r\n\r\nAudio\r\nID                          : 2\r\nFormat                      : AC-3\r\nFormat/Info                 : Audio Coding 3\r\nMode extension              : CM (complete main)\r\nFormat settings, Endianness : Big\r\nCodec ID                    : A_AC3\r\nDuration                    : 1h 26mn\r\nBit rate mode               : Constant\r\nBit rate                    : 256 Kbps\r\nChannel(s)                  : 2 channels\r\nChannel positions           : Front: L R\r\nSampling rate               : 48.0 KHz\r\nFrame rate                  : 31.250 fps (1536 spf)\r\nCompression mode            : Lossy\r\nDelay relative to video     : 16ms\r\nStream size                 : 159 MiB (11%)\r\nLanguage                    : English\r\nDefault                     : Yes\r\nForced                      : No\r\n\r\n\r\n\r\n\r\n\r\nE N C O D E R S . N O T E S . . .       \r\n\r\nSOURCE......: ViDEO...CPG\r\n............: AUDiO...CPG\r\nSAMPLE......: Yippers \r\nADDED NOTE..: Love Me.... Love You...fixed colours, sharp &amp; whites and balcks... then sprayed sum ol' poo-shine and poof.... fixed sexy like",
  "parsed": {
    "xt": "urn:btih:8ac53a35deb6c6ce0a29243c20114f2b8d5f9962",
    "dn": "Finding Dory 2016 HDTS x264 AC3-VAiN",
    "tr": [
      "udp://exodus.desync.com:6969",
      "udp://open.demonii.com:1337",
      "udp://tracker.coppersurfer.tk:6969",
      "udp://tracker.leechers-paradise.org:6969",
      "udp://zer0day.ch:1337"
    ],
    "infoHash": "8ac53a35deb6c6ce0a29243c20114f2b8d5f9962",
    "infoHashBuffer": {
      "type": "Buffer",
      "data": [
        138,
        197,
        58,
        53,
        222,
        182,
        198,
        206,
        10,
        41,
        36,
        60,
        32,
        17,
        79,
        43,
        141,
        95,
        153,
        98
      ]
    },
    "name": "Finding Dory 2016 HDTS x264 AC3-VAiN",
    "announce": [
      "udp://exodus.desync.com:6969",
      "udp://open.demonii.com:1337",
      "udp://tracker.coppersurfer.tk:6969",
      "udp://tracker.leechers-paradise.org:6969",
      "udp://zer0day.ch:1337"
    ],
    "urlList": []
  },
  "previous": 74,
  "peers": 101,
  "last_updated": "2016-12-25T07:10:39.332Z"
}